ETBembo-Expert.ufo
<glyph name="comma" format="1">
  <advance width="251"/>
  <unicode hex="002C"/>
  <outline>
    <contour>
      <point x="87" y="-139" type="curve" smooth="yes"/>
      <point x="80" y="-142"/>
      <point x="72" y="-139"/>
      <point x="69" y="-132" type="curve" smooth="yes"/>
      <point x="65" y="-124"/>
      <point x="68" y="-114"/>
      <point x="77" y="-111" type="curve" smooth="yes"/>
      <point x="121" y="-84"/>
      <point x="142" y="-55"/>
      <point x="142" y="-26" type="curve" smooth="yes"/>
      <point x="142" y="-18"/>
      <point x="140" y="-16"/>
      <point x="138" y="-16" type="curve" smooth="yes"/>
      <point x="134" y="-14"/>
      <point x="121" y="-19"/>
      <point x="115" y="-19" type="curve" smooth="yes"/>
      <point x="89" y="-19"/>
      <point x="70" y="3"/>
      <point x="70" y="30" type="curve" smooth="yes"/>
      <point x="70" y="60"/>
      <point x="95" y="82"/>
      <point x="124" y="82" type="curve" smooth="yes"/>
      <point x="164" y="82"/>
      <point x="192" y="46"/>
      <point x="192" y="0" type="curve" smooth="yes"/>
      <point x="192" y="-60"/>
      <point x="149" y="-115"/>
    </contour>
  </outline>
</glyph>
<glyph name="hyphen" format="1">
  <advance width="435"/>
  <unicode hex="002D"/>
  <outline>
    <contour>
      <point x="394" y="217" type="line" smooth="yes"/>
      <point x="391" y="206"/>
      <point x="380" y="201"/>
      <point x="371" y="199" type="curve" smooth="yes"/>
      <point x="289" y="195"/>
      <point x="139" y="196"/>
      <point x="69" y="199" type="curve" smooth="yes"/>
      <point x="62" y="200"/>
      <point x="46" y="207"/>
      <point x="44" y="220" type="curve" smooth="yes"/>
      <point x="45" y="249" type="line" smooth="yes"/>
      <point x="46" y="262"/>
      <point x="68" y="269"/>
      <point x="74" y="268" type="curve" smooth="yes"/>
      <point x="152" y="265"/>
      <point x="299" y="265"/>
      <point x="370" y="268" type="curve" smooth="yes"/>
      <point x="376" y="269"/>
      <point x="391" y="263"/>
      <point x="392" y="255" type="curve" smooth="yes"/>
    </contour>
  </outline>
</glyph>
<glyph name="zero" format="1">
  <advance width="505"/>
  <unicode hex="0030"/>
  <outline>
    <contour>
      <point x="253" y="-14" type="curve" smooth="yes"/>
      <point x="132" y="-14"/>
      <point x="44" y="83"/>
      <point x="44" y="215" type="curve" smooth="yes"/>
      <point x="44" y="355"/>
      <point x="131" y="455"/>
      <point x="254" y="455" type="curve" smooth="yes"/>
      <point x="379" y="455"/>
      <point x="465" y="356"/>
      <point x="465" y="218" type="curve" smooth="yes"/>
      <point x="465" y="82"/>
      <point x="379" y="-14"/>
    </contour>
    <contour>
      <point x="252" y="408" type="curve" smooth="yes"/>
      <point x="169" y="408"/>
      <point x="114" y="337"/>
      <point x="114" y="221" type="curve" smooth="yes"/>
      <point x="114" y="104"/>
      <point x="168" y="35"/>
      <point x="253" y="35" type="curve" smooth="yes"/>
      <point x="341" y="35"/>
      <point x="396" y="103"/>
      <point x="396" y="220" type="curve" smooth="yes"/>
      <point x="396" y="340"/>
      <point x="342" y="408"/>
    </contour>
  </outline>
</glyph>
<glyph name="two" format="1">
  <advance width="481"/>
  <unicode hex="0032"/>
  <outline>
    <contour>
      <point x="372" y="-4" type="curve" smooth="yes"/>
      <point x="278" y="-1"/>
      <point x="119" y="-2"/>
      <point x="50" y="-4" type="curve" smooth="yes"/>
      <point x="45" y="-4"/>
      <point x="34" y="-2"/>
      <point x="33" y="4" type="curve" smooth="yes"/>
      <point x="31" y="11"/>
      <point x="33" y="20"/>
      <point x="36" y="23" type="curve" smooth="yes"/>
      <point x="120" y="82"/>
      <point x="168" y="118"/>
      <point x="220" y="164" type="curve" smooth="yes"/>
      <point x="281" y="218"/>
      <point x="304" y="257"/>
      <point x="304" y="299" type="curve" smooth="yes"/>
      <point x="304" y="356"/>
      <point x="264" y="397"/>
      <point x="205" y="397" type="curve" smooth="yes"/>
      <point x="167" y="397"/>
      <point x="133" y="381"/>
      <point x="89" y="341" type="curve" smooth="yes"/>
      <point x="85" y="337"/>
      <point x="60" y="343"/>
      <point x="68" y="359" type="curve"/>
      <point x="129" y="428"/>
      <point x="178" y="455"/>
      <point x="245" y="455" type="curve" smooth="yes"/>
      <point x="321" y="455"/>
      <point x="383" y="404"/>
      <point x="383" y="338" type="curve" smooth="yes"/>
      <point x="383" y="277"/>
      <point x="352" y="228"/>
      <point x="271" y="160" type="curve" smooth="yes"/>
      <point x="244" y="137"/>
      <point x="217" y="119"/>
      <point x="156" y="76" type="curve" smooth="yes"/>
      <point x="148" y="70"/>
      <point x="162" y="69"/>
      <point x="176" y="69" type="curve" smooth="yes"/>
      <point x="316" y="67" type="line" smooth="yes"/>
      <point x="346" y="67"/>
      <point x="365" y="66"/>
      <point x="382" y="94" type="curve" smooth="yes"/>
      <point x="390" y="108"/>
      <point x="400" y="127"/>
      <point x="411" y="156" type="curve" smooth="yes"/>
      <point x="415" y="160"/>
      <point x="423" y="161"/>
      <point x="429" y="160" type="curve" smooth="yes"/>
      <point x="434" y="159"/>
      <point x="441" y="156"/>
      <point x="439" y="150" type="curve" smooth="yes"/>
      <point x="434" y="114"/>
      <point x="421" y="55"/>
      <point x="405" y="11" type="curve" smooth="yes"/>
      <point x="403" y="3"/>
      <point x="390" y="-4"/>
    </contour>
  </outline>
</glyph>
<glyph name="nine" format="1">
  <advance width="470"/>
  <unicode hex="0039"/>
  <outline>
    <contour>
      <point x="64" y="-176" type="curve" smooth="yes"/>
      <point x="43" y="-181"/>
      <point x="34" y="-151"/>
      <point x="49" y="-144" type="curve" smooth="yes"/>
      <point x="131" y="-115"/>
      <point x="172" y="-95"/>
      <point x="218" y="-58" type="curve" smooth="yes"/>
      <point x="257" y="-27"/>
      <point x="288" y="3"/>
      <point x="309" y="44" type="curve" smooth="yes"/>
      <point x="310" y="46"/>
      <point x="318" y="63"/>
      <point x="310" y="60" type="curve" smooth="yes"/>
      <point x="274" y="48"/>
      <point x="257" y="46"/>
      <point x="230" y="46" type="curve" smooth="yes"/>
      <point x="120" y="46"/>
      <point x="36" y="133"/>
      <point x="36" y="245" type="curve" smooth="yes"/>
      <point x="36" y="365"/>
      <point x="121" y="456"/>
      <point x="234" y="456" type="curve" smooth="yes"/>
      <point x="356" y="456"/>
      <point x="440" y="355"/>
      <point x="440" y="218" type="curve" smooth="yes"/>
      <point x="440" y="-13"/>
      <point x="263" y="-128"/>
    </contour>
    <contour>
      <point x="238" y="431" type="curve" smooth="yes"/>
      <point x="215" y="431"/>
      <point x="189" y="421"/>
      <point x="170" y="406" type="curve" smooth="yes"/>
      <point x="139" y="381"/>
      <point x="122" y="333"/>
      <point x="122" y="260" type="curve" smooth="yes"/>
      <point x="122" y="141"/>
      <point x="169" y="73"/>
      <point x="246" y="73" type="curve" smooth="yes"/>
      <point x="272" y="73"/>
      <point x="293" y="78"/>
      <point x="326" y="95" type="curve" smooth="yes"/>
      <point x="333" y="98"/>
      <point x="337" y="110"/>
      <point x="340" y="122" type="curve" smooth="yes"/>
      <point x="353" y="170"/>
      <point x="355" y="201"/>
      <point x="355" y="247" type="curve" smooth="yes"/>
      <point x="355" y="362"/>
      <point x="309" y="431"/>
    </contour>
  </outline>
</glyph>
<glyph name="colon" format="1">
  <advance width="257"/>
  <unicode hex="003A"/>
  <outline>
    <contour>
      <point x="129" y="320" type="curve" smooth="yes"/>
      <point x="99" y="320"/>
      <point x="76" y="342"/>
      <point x="76" y="371" type="curve" smooth="yes"/>
      <point x="76" y="402"/>
      <point x="99" y="423"/>
      <point x="129" y="423" type="curve" smooth="yes"/>
      <point x="159" y="423"/>
      <point x="182" y="402"/>
      <point x="182" y="371" type="curve" smooth="yes"/>
      <point x="182" y="342"/>
      <point x="159" y="320"/>
    </contour>
    <contour>
      <point x="129" y="12" type="curve" smooth="yes"/>
      <point x="99" y="12"/>
      <point x="76" y="34"/>
      <point x="76" y="64" type="curve" smooth="yes"/>
      <point x="76" y="94"/>
      <point x="99" y="115"/>
      <point x="129" y="115" type="curve" smooth="yes"/>
      <point x="159" y="115"/>
      <point x="182" y="95"/>
      <point x="182" y="64" type="curve" smooth="yes"/>
      <point x="182" y="34"/>
      <point x="159" y="12"/>
    </contour>
  </outline>
</glyph>
<glyph name="I" format="1">
  <advance width="715"/>
  <unicode hex="0049"/>
  <outline>
    <contour>
      <point x="157" y="-22" type="line"/>
      <point x="154" y="-27" type="line" smooth="yes"/>
      <point x="150" y="-32"/>
      <point x="147" y="-34"/>
      <point x="141" y="-34" type="curve" smooth="yes"/>
      <point x="110" y="-34" type="line" smooth="yes"/>
      <point x="98" y="-34"/>
      <point x="98" y="-21"/>
      <point x="103" y="-13" type="curve" smooth="yes"/>
      <point x="572" y="650" type="line" smooth="yes"/>
      <point x="577" y="657"/>
      <point x="582" y="661"/>
      <point x="590" y="660" type="curve" smooth="yes"/>
      <point x="618" y="658" type="line" smooth="yes"/>
      <point x="628" y="658"/>
      <point x="628" y="645"/>
      <point x="623" y="638" type="curve" smooth="yes"/>
    </contour>
    <contour>
      <point x="117" y="291" type="curve" smooth="yes"/>
      <point x="71" y="291"/>
      <point x="17" y="308"/>
      <point x="17" y="338" type="curve" smooth="yes"/>
      <point x="17" y="354"/>
      <point x="32" y="367"/>
      <point x="49" y="367" type="curve" smooth="yes"/>
      <point x="67" y="367"/>
      <point x="84" y="352"/>
      <point x="98" y="342" type="curve" smooth="yes"/>
      <point x="116" y="330"/>
      <point x="126" y="327"/>
      <point x="138" y="327" type="curve" smooth="yes"/>
      <point x="174" y="327"/>
      <point x="208" y="363"/>
      <point x="208" y="407" type="curve" smooth="yes"/>
      <point x="208" y="442"/>
      <point x="185" y="467"/>
      <point x="159" y="467" type="curve" smooth="yes"/>
      <point x="146" y="467"/>
      <point x="137" y="464"/>
      <point x="118" y="450" type="curve" smooth="yes"/>
      <point x="105" y="439"/>
      <point x="87" y="467"/>
      <point x="96" y="476" type="curve" smooth="yes"/>
      <point x="152" y="510"/>
      <point x="179" y="541"/>
      <point x="179" y="560" type="curve" smooth="yes"/>
      <point x="179" y="579"/>
      <point x="161" y="596"/>
      <point x="135" y="596" type="curve" smooth="yes"/>
      <point x="110" y="596"/>
      <point x="84" y="579"/>
      <point x="65" y="545" type="curve" smooth="yes"/>
      <point x="60" y="534"/>
      <point x="28" y="545"/>
      <point x="32" y="558" type="curve" smooth="yes"/>
      <point x="56" y="612"/>
      <point x="102" y="643"/>
      <point x="155" y="643" type="curve" smooth="yes"/>
      <point x="203" y="643"/>
      <point x="245" y="617"/>
      <point x="245" y="576" type="curve" smooth="yes"/>
      <point x="245" y="555"/>
      <point x="234" y="537"/>
      <point x="213" y="519" type="curve" smooth="yes"/>
      <point x="203" y="510"/>
      <point x="216" y="507"/>
      <point x="221" y="506" type="curve" smooth="yes"/>
      <point x="257" y="491"/>
      <point x="279" y="460"/>
      <point x="279" y="420" type="curve" smooth="yes"/>
      <point x="279" y="350"/>
      <point x="201" y="291"/>
    </contour>
    <contour>
      <point x="666" y="95" type="curve" smooth="yes"/>
      <point x="665" y="90"/>
      <point x="664" y="86"/>
      <point x="660" y="86" type="curve" smooth="yes"/>
      <point x="615" y="86" type="line" smooth="yes"/>
      <point x="607" y="85"/>
      <point x="607" y="77"/>
      <point x="605" y="67" type="curve" smooth="yes"/>
      <point x="605" y="0" type="line" smooth="yes"/>
      <point x="603" y="-11"/>
      <point x="598" y="-15"/>
      <point x="589" y="-15" type="curve" smooth="yes"/>
      <point x="583" y="-15"/>
      <point x="561" y="-17"/>
      <point x="555" y="-15" type="curve" smooth="yes"/>
      <point x="545" y="-14"/>
      <point x="541" y="-10"/>
      <point x="539" y="-2" type="curve" smooth="yes"/>
      <point x="539" y="77" type="line" smooth="yes"/>
      <point x="537" y="83"/>
      <point x="532" y="85"/>
      <point x="525" y="86" type="curve" smooth="yes"/>
      <point x="489" y="83"/>
      <point x="435" y="85"/>
      <point x="403" y="86" type="curve" smooth="yes"/>
      <point x="392" y="86"/>
      <point x="390" y="94"/>
      <point x="390" y="98" type="curve" smooth="yes"/>
      <point x="390" y="111" type="line"/>
      <point x="432" y="168"/>
      <point x="515" y="274"/>
      <point x="567" y="338" type="curve"/>
      <point x="577" y="341"/>
      <point x="577" y="342"/>
      <point x="589" y="340" type="curve" smooth="yes"/>
      <point x="594" y="339"/>
      <point x="606" y="335"/>
      <point x="605" y="328" type="curve" smooth="yes"/>
      <point x="605" y="142" type="line" smooth="yes"/>
      <point x="605" y="139"/>
      <point x="607" y="132"/>
      <point x="613" y="132" type="curve" smooth="yes"/>
      <point x="656" y="132" type="line" smooth="yes"/>
      <point x="665" y="133"/>
      <point x="667" y="127"/>
      <point x="667" y="108" type="curve" smooth="yes"/>
      <point x="667" y="105"/>
      <point x="667" y="100"/>
    </contour>
    <contour>
      <point x="542" y="230" type="line" smooth="yes"/>
      <point x="541" y="235"/>
      <point x="543" y="243"/>
      <point x="538" y="241" type="curve" smooth="yes"/>
      <point x="515" y="214"/>
      <point x="477" y="164"/>
      <point x="458" y="138" type="curve" smooth="yes"/>
      <point x="456" y="134"/>
      <point x="461" y="132"/>
      <point x="466" y="132" type="curve" smooth="yes"/>
      <point x="484" y="131"/>
      <point x="515" y="132"/>
      <point x="531" y="132" type="curve" smooth="yes"/>
      <point x="537" y="133"/>
      <point x="539" y="144"/>
      <point x="539" y="148" type="curve" smooth="yes"/>
    </contour>
  </outline>
</glyph>
<glyph name="bracketright" format="1">
  <advance width="343"/>
  <unicode hex="005D"/>
  <outline>
    <contour>
      <point x="177" y="-229" type="curve" smooth="yes"/>
      <point x="144" y="-230"/>
      <point x="84" y="-231"/>
      <point x="51" y="-229" type="curve" smooth="yes"/>
      <point x="45" y="-229"/>
      <point x="32" y="-228"/>
      <point x="32" y="-220" type="curve" smooth="yes"/>
      <point x="32" y="-209" type="line" smooth="yes"/>
      <point x="32" y="-191"/>
      <point x="55" y="-197"/>
      <point x="67" y="-196" type="curve" smooth="yes"/>
      <point x="116" y="-192"/>
      <point x="120" y="-188"/>
      <point x="120" y="-161" type="curve" smooth="yes"/>
      <point x="122" y="36"/>
      <point x="122" y="410"/>
      <point x="120" y="623" type="curve" smooth="yes"/>
      <point x="120" y="640"/>
      <point x="116" y="648"/>
      <point x="108" y="652" type="curve" smooth="yes"/>
      <point x="98" y="657"/>
      <point x="78" y="657"/>
      <point x="67" y="658" type="curve" smooth="yes"/>
      <point x="40" y="660" type="line" smooth="yes"/>
      <point x="35" y="660"/>
      <point x="32" y="662"/>
      <point x="32" y="668" type="curve" smooth="yes"/>
      <point x="32" y="683" type="line" smooth="yes"/>
      <point x="32" y="689"/>
      <point x="39" y="690"/>
      <point x="44" y="690" type="curve" smooth="yes"/>
      <point x="50" y="690" type="line" smooth="yes"/>
      <point x="84" y="690"/>
      <point x="146" y="693"/>
      <point x="178" y="690" type="curve" smooth="yes"/>
      <point x="196" y="689"/>
      <point x="200" y="683"/>
      <point x="200" y="664" type="curve" smooth="yes"/>
      <point x="203" y="446"/>
      <point x="204" y="9"/>
      <point x="200" y="-209" type="curve" smooth="yes"/>
      <point x="200" y="-223"/>
      <point x="192" y="-228"/>
    </contour>
  </outline>
</glyph>
<glyph name="grave" format="1">
  <advance width="348"/>
  <unicode hex="0060"/>
  <outline>
    <contour>
      <point x="229" y="562" type="curve" smooth="yes"/>
      <point x="230" y="549"/>
      <point x="212" y="548"/>
      <point x="204" y="555" type="curve" smooth="yes"/>
      <point x="172" y="597"/>
      <point x="113" y="666"/>
      <point x="70" y="713" type="curve" smooth="yes"/>
      <point x="64" y="719"/>
      <point x="72" y="732"/>
      <point x="84" y="732" type="curve" smooth="yes"/>
      <point x="161" y="733" type="line" smooth="yes"/>
      <point x="170" y="733"/>
      <point x="175" y="733"/>
      <point x="180" y="725" type="curve" smooth="yes"/>
      <point x="197" y="680"/>
      <point x="219" y="605"/>
    </contour>
  </outline>
</glyph>
<glyph name="d" format="1">
  <advance width="573"/>
  <unicode hex="0064"/>
  <outline>
    <contour>
      <point x="360" y="13" type="curve" smooth="yes"/>
      <point x="333" y="5"/>
      <point x="312" y="1"/>
      <point x="290" y="-1" type="curve" smooth="yes"/>
      <point x="269" y="-3"/>
      <point x="247" y="-3"/>
      <point x="219" y="-2" type="curve" smooth="yes"/>
      <point x="177" y="-1"/>
      <point x="88" y="-1"/>
      <point x="45" y="-3" type="curve" smooth="yes"/>
      <point x="28" y="-3"/>
      <point x="30" y="38"/>
      <point x="46" y="37" type="curve" smooth="yes"/>
      <point x="55" y="37" type="line" smooth="yes"/>
      <point x="93" y="37"/>
      <point x="100" y="41"/>
      <point x="101" y="77" type="curve" smooth="yes"/>
      <point x="102" y="102" type="line"/>
      <point x="102" y="376" type="line" smooth="yes"/>
      <point x="102" y="441"/>
      <point x="99" y="441"/>
      <point x="49" y="441" type="curve" smooth="yes"/>
      <point x="43" y="441" type="line" smooth="yes"/>
      <point x="24" y="444"/>
      <point x="27" y="475"/>
      <point x="42" y="478" type="curve" smooth="yes"/>
      <point x="47" y="480" type="line"/>
      <point x="115" y="482"/>
      <point x="183" y="485"/>
      <point x="251" y="485" type="curve" smooth="yes"/>
      <point x="341" y="485"/>
      <point x="399" y="470"/>
      <point x="448" y="432" type="curve" smooth="yes"/>
      <point x="504" y="390"/>
      <point x="534" y="327"/>
      <point x="534" y="254" type="curve" smooth="yes"/>
      <point x="534" y="144"/>
      <point x="462" y="44"/>
    </contour>
    <contour>
      <point x="380" y="406" type="curve" smooth="yes"/>
      <point x="351" y="429"/>
      <point x="323" y="437"/>
      <point x="270" y="442" type="curve" smooth="yes"/>
      <point x="240" y="446"/>
      <point x="225" y="448"/>
      <point x="195" y="445" type="curve" smooth="yes"/>
      <point x="188" y="445"/>
      <point x="180" y="437"/>
      <point x="180" y="425" type="curve" smooth="yes"/>
      <point x="180" y="84" type="line" smooth="yes"/>
      <point x="180" y="44"/>
      <point x="182" y="38"/>
      <point x="230" y="38" type="curve" smooth="yes"/>
      <point x="294" y="38"/>
      <point x="309" y="40"/>
      <point x="341" y="55" type="curve" smooth="yes"/>
      <point x="406" y="86"/>
      <point x="448" y="157"/>
      <point x="448" y="242" type="curve" smooth="yes"/>
      <point x="448" y="313"/>
      <point x="422" y="372"/>
    </contour>
  </outline>
</glyph>
<glyph name="q" format="1">
  <advance width="586"/>
  <unicode hex="0071"/>
  <outline>
    <contour>
      <point x="546" y="-149" type="curve" smooth="yes"/>
      <point x="532" y="-154"/>
      <point x="523" y="-154"/>
      <point x="510" y="-154" type="curve" smooth="yes"/>
      <point x="444" y="-154"/>
      <point x="397" y="-115"/>
      <point x="350" y="-74" type="curve" smooth="yes"/>
      <point x="338" y="-63"/>
      <point x="328" y="-54"/>
      <point x="321" y="-48" type="curve" smooth="yes"/>
      <point x="313" y="-41"/>
      <point x="307" y="-36"/>
      <point x="302" y="-33" type="curve" smooth="yes"/>
      <point x="293" y="-26"/>
      <point x="285" y="-22"/>
      <point x="269" y="-16" type="curve"/>
      <point x="129" y="-2"/>
      <point x="36" y="97"/>
      <point x="36" y="230" type="curve" smooth="yes"/>
      <point x="36" y="378"/>
      <point x="145" y="490"/>
      <point x="296" y="490" type="curve" smooth="yes"/>
      <point x="444" y="490"/>
      <point x="541" y="387"/>
      <point x="541" y="247" type="curve" smooth="yes"/>
      <point x="541" y="134"/>
      <point x="475" y="37"/>
      <point x="372" y="-1" type="curve"/>
      <point x="404" y="-16"/>
      <point x="428" y="-39"/>
      <point x="454" y="-62" type="curve" smooth="yes"/>
      <point x="496" y="-99"/>
      <point x="518" y="-110"/>
      <point x="561" y="-113" type="curve" smooth="yes"/>
      <point x="579" y="-117"/>
      <point x="557" y="-148"/>
    </contour>
    <contour>
      <point x="279" y="453" type="curve" smooth="yes"/>
      <point x="186" y="453"/>
      <point x="124" y="370"/>
      <point x="124" y="247" type="curve" smooth="yes"/>
      <point x="124" y="118"/>
      <point x="198" y="23"/>
      <point x="304" y="23" type="curve" smooth="yes"/>
      <point x="407" y="23"/>
      <point x="454" y="129"/>
      <point x="454" y="228" type="curve" smooth="yes"/>
      <point x="454" y="362"/>
      <point x="389" y="453"/>
    </contour>
  </outline>
</glyph>
<glyph name="v" format="1">
  <advance width="524"/>
  <unicode hex="0076"/>
  <outline>
    <contour>
      <point x="438" y="373" type="curve" smooth="yes"/>
      <point x="302" y="-1" type="line" smooth="yes"/>
      <point x="300" y="-6"/>
      <point x="291" y="-14"/>
      <point x="285" y="-15" type="curve" smooth="yes"/>
      <point x="276" y="-15"/>
      <point x="270" y="-18"/>
      <point x="261" y="-17" type="curve" smooth="yes"/>
      <point x="255" y="-17"/>
      <point x="246" y="-8"/>
      <point x="244" y="-2" type="curve" smooth="yes"/>
      <point x="98" y="384" type="line" smooth="yes"/>
      <point x="76" y="443"/>
      <point x="73" y="443"/>
      <point x="31" y="444" type="curve" smooth="yes"/>
      <point x="22" y="446"/>
      <point x="19" y="460"/>
      <point x="22" y="469" type="curve" smooth="yes"/>
      <point x="26" y="480"/>
      <point x="34" y="478"/>
      <point x="43" y="477" type="curve" smooth="yes"/>
      <point x="108" y="475"/>
      <point x="156" y="476"/>
      <point x="225" y="478" type="curve" smooth="yes"/>
      <point x="236" y="478"/>
      <point x="241" y="465"/>
      <point x="238" y="455" type="curve" smooth="yes"/>
      <point x="235" y="444"/>
      <point x="231" y="445"/>
      <point x="220" y="444" type="curve" smooth="yes"/>
      <point x="166" y="441"/>
      <point x="162" y="432"/>
      <point x="178" y="387" type="curve" smooth="yes"/>
      <point x="280" y="114" type="line" smooth="yes"/>
      <point x="283" y="108"/>
      <point x="291" y="113"/>
      <point x="295" y="126" type="curve" smooth="yes"/>
      <point x="385" y="381" type="line" smooth="yes"/>
      <point x="391" y="400"/>
      <point x="405" y="432"/>
      <point x="376" y="441" type="curve" smooth="yes"/>
      <point x="369" y="443"/>
      <point x="359" y="444"/>
      <point x="344" y="444" type="curve" smooth="yes"/>
      <point x="338" y="444"/>
      <point x="334" y="446"/>
      <point x="331" y="451" type="curve" smooth="yes"/>
      <point x="327" y="461"/>
      <point x="330" y="476"/>
      <point x="342" y="478" type="curve" smooth="yes"/>
      <point x="391" y="475"/>
      <point x="469" y="476"/>
      <point x="504" y="478" type="curve" smooth="yes"/>
      <point x="524" y="479"/>
      <point x="518" y="446"/>
      <point x="507" y="445" type="curve" smooth="yes"/>
      <point x="471" y="444"/>
      <point x="460" y="435"/>
    </contour>
  </outline>
</glyph>
<glyph name="dieresis" format="1">
  <advance width="348"/>
  <unicode hex="00A8"/>
  <outline>
    <contour>
      <point x="324" y="616" type="curve" smooth="yes"/>
      <point x="324" y="583"/>
      <point x="297" y="556"/>
      <point x="263" y="556" type="curve" smooth="yes"/>
      <point x="230" y="556"/>
      <point x="203" y="583"/>
      <point x="203" y="616" type="curve" smooth="yes"/>
      <point x="203" y="649"/>
      <point x="230" y="676"/>
      <point x="263" y="676" type="curve" smooth="yes"/>
      <point x="297" y="676"/>
      <point x="324" y="649"/>
    </contour>
    <contour>
      <point x="146" y="616" type="curve" smooth="yes"/>
      <point x="146" y="582"/>
      <point x="119" y="556"/>
      <point x="86" y="556" type="curve" smooth="yes"/>
      <point x="53" y="556"/>
      <point x="26" y="582"/>
      <point x="26" y="616" type="curve" smooth="yes"/>
      <point x="26" y="649"/>
      <point x="53" y="676"/>
      <point x="86" y="676" type="curve" smooth="yes"/>
      <point x="119" y="676"/>
      <point x="146" y="649"/>
    </contour>
  </outline>
</glyph>
<glyph name="paragraph" format="1">
  <advance width="349"/>
  <unicode hex="00B6"/>
  <outline>
    <contour>
      <point x="310" y="329" type="curve"/>
      <point x="181" y="8" type="line" smooth="yes"/>
      <point x="178" y="3"/>
      <point x="171" y="-3"/>
      <point x="160" y="-2" type="curve" smooth="yes"/>
      <point x="154" y="-1"/>
      <point x="119" y="7"/>
      <point x="128" y="28" type="curve" smooth="yes"/>
      <point x="227" y="259" type="line" smooth="yes"/>
      <point x="230" y="267"/>
      <point x="227" y="274"/>
      <point x="215" y="275" type="curve" smooth="yes"/>
      <point x="147" y="277"/>
      <point x="116" y="275"/>
      <point x="93" y="274" type="curve" smooth="yes"/>
      <point x="90" y="274"/>
      <point x="80" y="274"/>
      <point x="77" y="272" type="curve" smooth="yes"/>
      <point x="69" y="265"/>
      <point x="70" y="234"/>
      <point x="54" y="234" type="curve" smooth="yes"/>
      <point x="50" y="234"/>
      <point x="44" y="232"/>
      <point x="37" y="234" type="curve" smooth="yes"/>
      <point x="32" y="236"/>
      <point x="28" y="241"/>
      <point x="28" y="244" type="curve" smooth="yes"/>
      <point x="31" y="333" type="line" smooth="yes"/>
      <point x="32" y="342"/>
      <point x="48" y="354"/>
      <point x="59" y="353" type="curve" smooth="yes"/>
      <point x="116" y="357"/>
      <point x="204" y="355"/>
      <point x="285" y="353" type="curve" smooth="yes"/>
      <point x="306" y="352"/>
      <point x="313" y="349"/>
    </contour>
  </outline>
</glyph>
<glyph name="periodcentered" format="1">
  <advance width="349"/>
  <unicode hex="00B7"/>
  <outline>
    <contour>
      <point x="121" y="276" type="curve" smooth="yes"/>
      <point x="94" y="269"/>
      <point x="82" y="303"/>
      <point x="104" y="311" type="curve" smooth="yes"/>
      <point x="147" y="325"/>
      <point x="169" y="348"/>
      <point x="178" y="357" type="curve" smooth="yes"/>
      <point x="193" y="371"/>
      <point x="205" y="390"/>
      <point x="214" y="412" type="curve" smooth="yes"/>
      <point x="217" y="418"/>
      <point x="219" y="430"/>
      <point x="206" y="425" type="curve" smooth="yes"/>
      <point x="193" y="420"/>
      <point x="167" y="419"/>
      <point x="157" y="419" type="curve" smooth="yes"/>
      <point x="86" y="419"/>
      <point x="38" y="473"/>
      <point x="38" y="533" type="curve" smooth="yes"/>
      <point x="38" y="598"/>
      <point x="91" y="649"/>
      <point x="168" y="649" type="curve" smooth="yes"/>
      <point x="258" y="649"/>
      <point x="307" y="588"/>
      <point x="307" y="503" type="curve" smooth="yes"/>
      <point x="307" y="414"/>
      <point x="252" y="308"/>
    </contour>
    <contour>
      <point x="167" y="611" type="curve" smooth="yes"/>
      <point x="129" y="611"/>
      <point x="109" y="576"/>
      <point x="109" y="539" type="curve" smooth="yes"/>
      <point x="109" y="488"/>
      <point x="127" y="455"/>
      <point x="166" y="455" type="curve" smooth="yes"/>
      <point x="179" y="455"/>
      <point x="204" y="457"/>
      <point x="219" y="466" type="curve" smooth="yes"/>
      <point x="228" y="471"/>
      <point x="234" y="480"/>
      <point x="234" y="484" type="curve" smooth="yes"/>
      <point x="239" y="529"/>
      <point x="226" y="611"/>
    </contour>
  </outline>
</glyph>
<glyph name="Aacute" format="1">
  <advance width="349"/>
  <unicode hex="00C1"/>
  <outline>
    <contour>
      <point x="141" y="302" type="curve" smooth="yes"/>
      <point x="87" y="302"/>
      <point x="38" y="327"/>
      <point x="38" y="354" type="curve" smooth="yes"/>
      <point x="38" y="368"/>
      <point x="54" y="386"/>
      <point x="70" y="386" type="curve" smooth="yes"/>
      <point x="94" y="386"/>
      <point x="113" y="357"/>
      <point x="131" y="344" type="curve" smooth="yes"/>
      <point x="139" y="338"/>
      <point x="148" y="335"/>
      <point x="159" y="335" type="curve" smooth="yes"/>
      <point x="204" y="335"/>
      <point x="230" y="361"/>
      <point x="230" y="408" type="curve" smooth="yes"/>
      <point x="230" y="454"/>
      <point x="202" y="472"/>
      <point x="147" y="472" type="curve" smooth="yes"/>
      <point x="123" y="472"/>
      <point x="106" y="465"/>
      <point x="83" y="454" type="curve" smooth="yes"/>
      <point x="79" y="452"/>
      <point x="74" y="451"/>
      <point x="69" y="454" type="curve" smooth="yes"/>
      <point x="62" y="458"/>
      <point x="61" y="460"/>
      <point x="61" y="469" type="curve" smooth="yes"/>
      <point x="66" y="518"/>
      <point x="69" y="596"/>
      <point x="67" y="637" type="curve"/>
      <point x="71" y="654"/>
      <point x="91" y="652"/>
      <point x="103" y="651" type="curve" smooth="yes"/>
      <point x="125" y="650"/>
      <point x="179" y="649"/>
      <point x="214" y="650" type="curve" smooth="yes"/>
      <point x="223" y="651"/>
      <point x="238" y="650"/>
      <point x="244" y="650" type="curve" smooth="yes"/>
      <point x="250" y="650"/>
      <point x="255" y="655"/>
      <point x="258" y="658" type="curve" smooth="yes"/>
      <point x="262" y="661"/>
      <point x="265" y="662"/>
      <point x="268" y="662" type="curve" smooth="yes"/>
      <point x="278" y="662" type="line" smooth="yes"/>
      <point x="284" y="659"/>
      <point x="284" y="652"/>
      <point x="283" y="644" type="curve" smooth="yes"/>
      <point x="277" y="596" type="line" smooth="yes"/>
      <point x="273" y="588"/>
      <point x="273" y="583"/>
      <point x="258" y="583" type="curve" smooth="yes"/>
      <point x="118" y="585" type="line" smooth="yes"/>
      <point x="113" y="584"/>
      <point x="108" y="579"/>
      <point x="106" y="573" type="curve" smooth="yes"/>
      <point x="105" y="534" type="line" smooth="yes"/>
      <point x="105" y="533"/>
      <point x="106" y="521"/>
      <point x="112" y="522" type="curve" smooth="yes"/>
      <point x="127" y="527"/>
      <point x="148" y="534"/>
      <point x="168" y="534" type="curve" smooth="yes"/>
      <point x="249" y="534"/>
      <point x="297" y="487"/>
      <point x="297" y="422" type="curve" smooth="yes"/>
      <point x="297" y="353"/>
      <point x="234" y="302"/>
    </contour>
  </outline>
</glyph>
<glyph name="idieresis" format="1">
  <advance width="293"/>
  <unicode hex="00EF"/>
  <outline>
    <contour>
      <point x="231" y="-3" type="curve" smooth="yes"/>
      <point x="187" y="-2"/>
      <point x="109" y="-3"/>
      <point x="63" y="-3" type="curve" smooth="yes"/>
      <point x="52" y="-2"/>
      <point x="50" y="8"/>
      <point x="50" y="14" type="curve" smooth="yes"/>
      <point x="50" y="36"/>
      <point x="66" y="33"/>
      <point x="73" y="34" type="curve" smooth="yes"/>
      <point x="76" y="34"/>
      <point x="80" y="34"/>
      <point x="83" y="34" type="curve" smooth="yes"/>
      <point x="93" y="35"/>
      <point x="106" y="39"/>
      <point x="107" y="77" type="curve" smooth="yes"/>
      <point x="108" y="102" type="line" smooth="yes"/>
      <point x="110" y="179"/>
      <point x="110" y="289"/>
      <point x="108" y="375" type="curve" smooth="yes"/>
      <point x="107" y="400" type="line" smooth="yes"/>
      <point x="106" y="433"/>
      <point x="104" y="442"/>
      <point x="68" y="444" type="curve" smooth="yes"/>
      <point x="63" y="444"/>
      <point x="57" y="446"/>
      <point x="55" y="451" type="curve" smooth="yes"/>
      <point x="53" y="456"/>
      <point x="52" y="465"/>
      <point x="55" y="471" type="curve" smooth="yes"/>
      <point x="58" y="480"/>
      <point x="67" y="478"/>
      <point x="76" y="478" type="curve" smooth="yes"/>
      <point x="119" y="476"/>
      <point x="176" y="476"/>
      <point x="219" y="477" type="curve" smooth="yes"/>
      <point x="228" y="478"/>
      <point x="236" y="479"/>
      <point x="239" y="470" type="curve" smooth="yes"/>
      <point x="241" y="465"/>
      <point x="240" y="457"/>
      <point x="238" y="452" type="curve" smooth="yes"/>
      <point x="235" y="443"/>
      <point x="230" y="444"/>
      <point x="222" y="444" type="curve" smooth="yes"/>
      <point x="187" y="443"/>
      <point x="183" y="438"/>
      <point x="182" y="375" type="curve" smooth="yes"/>
      <point x="181" y="311"/>
      <point x="181" y="162"/>
      <point x="182" y="76" type="curve" smooth="yes"/>
      <point x="182" y="36"/>
      <point x="196" y="33"/>
      <point x="227" y="33" type="curve" smooth="yes"/>
      <point x="234" y="33"/>
      <point x="238" y="33"/>
      <point x="242" y="26" type="curve" smooth="yes"/>
      <point x="247" y="14"/>
      <point x="240" y="-3"/>
    </contour>
    <contour>
      <point x="294" y="616" type="curve" smooth="yes"/>
      <point x="294" y="583"/>
      <point x="267" y="556"/>
      <point x="233" y="556" type="curve" smooth="yes"/>
      <point x="200" y="556"/>
      <point x="173" y="583"/>
      <point x="173" y="616" type="curve" smooth="yes"/>
      <point x="173" y="649"/>
      <point x="200" y="676"/>
      <point x="233" y="676" type="curve" smooth="yes"/>
      <point x="267" y="676"/>
      <point x="294" y="649"/>
    </contour>
    <contour>
      <point x="116" y="616" type="curve" smooth="yes"/>
      <point x="116" y="582"/>
      <point x="89" y="556"/>
      <point x="56" y="556" type="curve" smooth="yes"/>
      <point x="23" y="556"/>
      <point x="-4" y="582"/>
      <point x="-4" y="616" type="curve" smooth="yes"/>
      <point x="-4" y="649"/>
      <point x="23" y="676"/>
      <point x="56" y="676" type="curve" smooth="yes"/>
      <point x="89" y="676"/>
      <point x="116" y="649"/>
    </contour>
  </outline>
</glyph>
<glyph name="oacute" format="1">
  <advance width="577"/>
  <unicode hex="00F3"/>
  <outline>
    <contour>
      <point x="289" y="-14" type="curve" smooth="yes"/>
      <point x="145" y="-14"/>
      <point x="40" y="94"/>
      <point x="40" y="232" type="curve" smooth="yes"/>
      <point x="40" y="380"/>
      <point x="143" y="490"/>
      <point x="290" y="490" type="curve" smooth="yes"/>
      <point x="435" y="490"/>
      <point x="536" y="383"/>
      <point x="536" y="245" type="curve" smooth="yes"/>
      <point x="536" y="97"/>
      <point x="432" y="-14"/>
    </contour>
    <contour>
      <point x="282" y="450" type="curve" smooth="yes"/>
      <point x="186" y="452"/>
      <point x="125" y="348"/>
      <point x="125" y="246" type="curve" smooth="yes"/>
      <point x="125" y="118"/>
      <point x="196" y="24"/>
      <point x="299" y="24" type="curve" smooth="yes"/>
      <point x="414" y="24"/>
      <point x="451" y="134"/>
      <point x="451" y="229" type="curve" smooth="yes"/>
      <point x="451" y="362"/>
      <point x="390" y="449"/>
    </contour>
    <contour>
      <point x="413" y="723" type="curve" smooth="yes"/>
      <point x="413" y="721"/>
      <point x="412" y="719"/>
      <point x="412" y="718" type="curve" smooth="yes"/>
      <point x="269" y="546" type="line" smooth="yes"/>
      <point x="263" y="539"/>
      <point x="238" y="539"/>
      <point x="243" y="555" type="curve" smooth="yes"/>
      <point x="292" y="719" type="line" smooth="yes"/>
      <point x="296" y="727"/>
      <point x="304" y="732"/>
      <point x="311" y="732" type="curve" smooth="yes"/>
      <point x="399" y="732" type="line" smooth="yes"/>
      <point x="406" y="733"/>
      <point x="415" y="731"/>
    </contour>
  </outline>
</glyph>
<glyph name="ydieresis" format="1">
  <advance width="500"/>
  <unicode hex="00FF"/>
  <outline>
    <contour>
      <point x="486" y="445" type="curve" smooth="yes"/>
      <point x="462" y="444"/>
      <point x="448" y="435"/>
      <point x="433" y="420" type="curve" smooth="yes"/>
      <point x="423" y="410"/>
      <point x="418" y="402"/>
      <point x="398" y="365" type="curve" smooth="yes"/>
      <point x="299" y="186" type="line"/>
      <point x="299" y="76" type="line" smooth="yes"/>
      <point x="299" y="42"/>
      <point x="308" y="36"/>
      <point x="346" y="36" type="curve" smooth="yes"/>
      <point x="349" y="36"/>
      <point x="354" y="37"/>
      <point x="359" y="35" type="curve" smooth="yes"/>
      <point x="375" y="33"/>
      <point x="373" y="-3"/>
      <point x="356" y="-3" type="curve" smooth="yes"/>
      <point x="308" y="-1"/>
      <point x="223" y="0"/>
      <point x="162" y="-3" type="curve" smooth="yes"/>
      <point x="147" y="-3"/>
      <point x="144" y="37"/>
      <point x="160" y="36" type="curve" smooth="yes"/>
      <point x="166" y="36"/>
      <point x="170" y="39"/>
      <point x="176" y="37" type="curve" smooth="yes"/>
      <point x="209" y="37"/>
      <point x="220" y="43"/>
      <point x="221" y="77" type="curve" smooth="yes"/>
      <point x="222" y="110"/>
      <point x="221" y="144"/>
      <point x="221" y="177" type="curve"/>
      <point x="101" y="381" type="line" smooth="yes"/>
      <point x="71" y="431"/>
      <point x="57" y="442"/>
      <point x="24" y="444" type="curve" smooth="yes"/>
      <point x="14" y="445"/>
      <point x="7" y="443"/>
      <point x="7" y="457" type="curve" smooth="yes"/>
      <point x="5" y="486"/>
      <point x="26" y="479"/>
      <point x="48" y="477" type="curve" smooth="yes"/>
      <point x="95" y="475"/>
      <point x="142" y="477"/>
      <point x="189" y="478" type="curve" smooth="yes"/>
      <point x="201" y="478"/>
      <point x="207" y="480"/>
      <point x="211" y="468" type="curve" smooth="yes"/>
      <point x="215" y="458"/>
      <point x="213" y="445"/>
      <point x="198" y="445" type="curve" smooth="yes"/>
      <point x="163" y="445"/>
      <point x="162" y="436"/>
      <point x="162" y="434" type="curve" smooth="yes"/>
      <point x="162" y="427"/>
      <point x="162" y="426"/>
      <point x="182" y="394" type="curve" smooth="yes"/>
      <point x="268" y="249" type="line"/>
      <point x="274" y="247"/>
      <point x="273" y="245"/>
      <point x="280" y="255" type="curve" smooth="yes"/>
      <point x="350" y="385" type="line" smooth="yes"/>
      <point x="368" y="419"/>
      <point x="371" y="425"/>
      <point x="371" y="430" type="curve" smooth="yes"/>
      <point x="371" y="438"/>
      <point x="370" y="444"/>
      <point x="339" y="444" type="curve" smooth="yes"/>
      <point x="330" y="441"/>
      <point x="324" y="444"/>
      <point x="321" y="454" type="curve" smooth="yes"/>
      <point x="317" y="464"/>
      <point x="319" y="478"/>
      <point x="333" y="478" type="curve" smooth="yes"/>
      <point x="368" y="476"/>
      <point x="431" y="476"/>
      <point x="485" y="478" type="curve" smooth="yes"/>
      <point x="495" y="478"/>
      <point x="497" y="467"/>
      <point x="497" y="461" type="curve" smooth="yes"/>
      <point x="497" y="456"/>
      <point x="494" y="445"/>
    </contour>
    <contour>
      <point x="410" y="616" type="curve" smooth="yes"/>
      <point x="410" y="583"/>
      <point x="383" y="556"/>
      <point x="349" y="556" type="curve" smooth="yes"/>
      <point x="316" y="556"/>
      <point x="289" y="583"/>
      <point x="289" y="616" type="curve" smooth="yes"/>
      <point x="289" y="649"/>
      <point x="316" y="676"/>
      <point x="349" y="676" type="curve" smooth="yes"/>
      <point x="383" y="676"/>
      <point x="410" y="649"/>
    </contour>
    <contour>
      <point x="232" y="616" type="curve" smooth="yes"/>
      <point x="232" y="582"/>
      <point x="205" y="556"/>
      <point x="172" y="556" type="curve" smooth="yes"/>
      <point x="139" y="556"/>
      <point x="112" y="582"/>
      <point x="112" y="616" type="curve" smooth="yes"/>
      <point x="112" y="649"/>
      <point x="139" y="676"/>
      <point x="172" y="676" type="curve" smooth="yes"/>
      <point x="205" y="676"/>
      <point x="232" y="649"/>
    </contour>
  </outline>
</glyph>
<glyph name="caron" format="1">
  <advance width="349"/>
  <unicode hex="02C7"/>
  <outline>
    <contour>
      <point x="326" y="732" type="curve" smooth="yes"/>
      <point x="229" y="561" type="line" smooth="yes"/>
      <point x="225" y="557"/>
      <point x="223" y="556"/>
      <point x="215" y="556" type="curve" smooth="yes"/>
      <point x="139" y="556" type="line" smooth="yes"/>
      <point x="128" y="556"/>
      <point x="122" y="559"/>
      <point x="121" y="564" type="curve" smooth="yes"/>
      <point x="25" y="731" type="line" smooth="yes"/>
      <point x="23" y="734"/>
      <point x="25" y="736"/>
      <point x="27" y="737" type="curve" smooth="yes"/>
      <point x="29" y="738"/>
      <point x="32" y="738"/>
      <point x="35" y="738" type="curve" smooth="yes"/>
      <point x="41" y="738"/>
      <point x="48" y="737"/>
      <point x="51" y="733" type="curve" smooth="yes"/>
      <point x="186" y="628" type="line"/>
      <point x="299" y="733" type="line" smooth="yes"/>
      <point x="301" y="735"/>
      <point x="308" y="737"/>
      <point x="314" y="737" type="curve" smooth="yes"/>
      <point x="320" y="737"/>
      <point x="326" y="735"/>
    </contour>
  </outline>
</glyph>
<glyph name="dotaccent" format="1">
  <advance width="349"/>
  <unicode hex="02D9"/>
  <outline>
    <contour>
      <point x="235" y="612" type="curve" smooth="yes"/>
      <point x="235" y="579"/>
      <point x="208" y="551"/>
      <point x="175" y="551" type="curve" smooth="yes"/>
      <point x="142" y="551"/>
      <point x="115" y="579"/>
      <point x="115" y="612" type="curve" smooth="yes"/>
      <point x="115" y="644"/>
      <point x="142" y="672"/>
      <point x="175" y="672" type="curve" smooth="yes"/>
      <point x="208" y="672"/>
      <point x="235" y="645"/>
    </contour>
  </outline>
</glyph>
<glyph name="tilde" format="1">
  <advance width="349"/>
  <unicode hex="02DC"/>
  <outline>
    <contour>
      <point x="336" y="668" type="curve" smooth="yes"/>
      <point x="336" y="597"/>
      <point x="295" y="544"/>
      <point x="237" y="544" type="curve" smooth="yes"/>
      <point x="210" y="544"/>
      <point x="178" y="557"/>
      <point x="140" y="583" type="curve" smooth="yes"/>
      <point x="103" y="609"/>
      <point x="94" y="612"/>
      <point x="81" y="612" type="curve" smooth="yes"/>
      <point x="62" y="612"/>
      <point x="52" y="601"/>
      <point x="44" y="565" type="curve" smooth="yes"/>
      <point x="44" y="561"/>
      <point x="42" y="557"/>
      <point x="41" y="547" type="curve" smooth="yes"/>
      <point x="37" y="539"/>
      <point x="16" y="534"/>
      <point x="14" y="547" type="curve" smooth="yes"/>
      <point x="18" y="633"/>
      <point x="51" y="682"/>
      <point x="112" y="682" type="curve" smooth="yes"/>
      <point x="142" y="682"/>
      <point x="165" y="673"/>
      <point x="210" y="642" type="curve" smooth="yes"/>
      <point x="241" y="621"/>
      <point x="257" y="615"/>
      <point x="269" y="615" type="curve" smooth="yes"/>
      <point x="290" y="615"/>
      <point x="301" y="627"/>
      <point x="309" y="681" type="curve" smooth="yes"/>
      <point x="309" y="685"/>
      <point x="316" y="687"/>
      <point x="322" y="687" type="curve" smooth="yes"/>
      <point x="328" y="688"/>
      <point x="334" y="685"/>
      <point x="334" y="681" type="curve" smooth="yes"/>
      <point x="336" y="675"/>
      <point x="336" y="671"/>
    </contour>
  </outline>
</glyph>
<glyph name="hungarumlaut" format="1">
  <advance width="349"/>
  <unicode hex="02DD"/>
  <outline>
    <contour>
      <point x="332" y="652" type="curve" smooth="yes"/>
      <point x="222" y="476" type="line" smooth="yes"/>
      <point x="220" y="473"/>
      <point x="212" y="472"/>
      <point x="206" y="473" type="curve" smooth="yes"/>
      <point x="200" y="473"/>
      <point x="194" y="475"/>
      <point x="194" y="477" type="curve" smooth="yes"/>
      <point x="227" y="654" type="line" smooth="yes"/>
      <point x="229" y="660"/>
      <point x="232" y="662"/>
      <point x="237" y="662" type="curve" smooth="yes"/>
      <point x="328" y="662" type="line" smooth="yes"/>
      <point x="335" y="660"/>
      <point x="334" y="657"/>
    </contour>
    <contour>
      <point x="175" y="652" type="curve" smooth="yes"/>
      <point x="63" y="476" type="line" smooth="yes"/>
      <point x="56" y="471"/>
      <point x="36" y="473"/>
      <point x="36" y="477" type="curve" smooth="yes"/>
      <point x="69" y="653" type="line" smooth="yes"/>
      <point x="70" y="661"/>
      <point x="76" y="662"/>
      <point x="82" y="662" type="curve" smooth="yes"/>
      <point x="170" y="662" type="line" smooth="yes"/>
      <point x="177" y="660"/>
      <point x="179" y="658"/>
    </contour>
  </outline>
</glyph>
<glyph name="endash" format="1">
  <advance width="480"/>
  <unicode hex="2013"/>
  <outline>
    <contour>
      <point x="95" y="229" type="line" smooth="yes"/>
      <point x="82" y="228"/>
      <point x="81" y="265"/>
      <point x="95" y="274" type="curve"/>
      <point x="398" y="274" type="line" smooth="yes"/>
      <point x="414" y="274"/>
      <point x="414" y="229"/>
      <point x="398" y="229" type="curve" smooth="yes"/>
    </contour>
  </outline>
</glyph>
<glyph name="quotesinglbase" format="1">
  <advance width="396"/>
  <unicode hex="201A"/>
  <outline>
    <contour>
      <point x="196" y="287" type="curve" smooth="yes"/>
      <point x="109" y="287"/>
      <point x="49" y="370"/>
      <point x="49" y="468" type="curve" smooth="yes"/>
      <point x="49" y="566"/>
      <point x="109" y="650"/>
      <point x="196" y="650" type="curve" smooth="yes"/>
      <point x="283" y="650"/>
      <point x="342" y="566"/>
      <point x="342" y="468" type="curve" smooth="yes"/>
      <point x="342" y="370"/>
      <point x="283" y="287"/>
    </contour>
    <contour>
      <point x="196" y="613" type="curve" smooth="yes"/>
      <point x="124" y="613"/>
      <point x="121" y="518"/>
      <point x="121" y="468" type="curve" smooth="yes"/>
      <point x="121" y="389"/>
      <point x="143" y="327"/>
      <point x="196" y="327" type="curve" smooth="yes"/>
      <point x="254" y="327"/>
      <point x="270" y="380"/>
      <point x="270" y="468" type="curve" smooth="yes"/>
      <point x="270" y="516"/>
      <point x="266" y="613"/>
    </contour>
  </outline>
</glyph>
<glyph name="daggerdbl" format="1">
  <advance width="349"/>
  <unicode hex="2021"/>
  <outline>
    <contour>
      <point x="313" y="624" type="curve"/>
      <point x="184" y="302" type="line" smooth="yes"/>
      <point x="181" y="297"/>
      <point x="174" y="292"/>
      <point x="163" y="293" type="curve" smooth="yes"/>
      <point x="157" y="293"/>
      <point x="122" y="301"/>
      <point x="131" y="322" type="curve" smooth="yes"/>
      <point x="230" y="554" type="line" smooth="yes"/>
      <point x="233" y="561"/>
      <point x="230" y="569"/>
      <point x="218" y="569" type="curve" smooth="yes"/>
      <point x="150" y="571"/>
      <point x="119" y="569"/>
      <point x="96" y="568" type="curve" smooth="yes"/>
      <point x="93" y="568"/>
      <point x="83" y="568"/>
      <point x="80" y="566" type="curve" smooth="yes"/>
      <point x="72" y="559"/>
      <point x="73" y="528"/>
      <point x="57" y="528" type="curve" smooth="yes"/>
      <point x="53" y="528"/>
      <point x="47" y="526"/>
      <point x="40" y="528" type="curve" smooth="yes"/>
      <point x="35" y="530"/>
      <point x="31" y="535"/>
      <point x="31" y="538" type="curve" smooth="yes"/>
      <point x="34" y="627" type="line" smooth="yes"/>
      <point x="35" y="636"/>
      <point x="51" y="648"/>
      <point x="62" y="647" type="curve" smooth="yes"/>
      <point x="119" y="651"/>
      <point x="207" y="649"/>
      <point x="288" y="647" type="curve" smooth="yes"/>
      <point x="311" y="647"/>
      <point x="317" y="645"/>
    </contour>
  </outline>
</glyph>
<glyph name="fraction" format="1">
  <advance width="301"/>
  <unicode hex="2044"/>
  <outline>
    <contour>
      <point x="250" y="315" type="curve" smooth="yes"/>
      <point x="249" y="306"/>
      <point x="245" y="303"/>
      <point x="236" y="304" type="curve" smooth="yes"/>
      <point x="210" y="305"/>
      <point x="106" y="307"/>
      <point x="81" y="304" type="curve" smooth="yes"/>
      <point x="76" y="303"/>
      <point x="70" y="307"/>
      <point x="69" y="314" type="curve" smooth="yes"/>
      <point x="69" y="317"/>
      <point x="68" y="323"/>
      <point x="70" y="329" type="curve" smooth="yes"/>
      <point x="75" y="335"/>
      <point x="77" y="339"/>
      <point x="88" y="339" type="curve" smooth="yes"/>
      <point x="95" y="339"/>
      <point x="105" y="340"/>
      <point x="111" y="342" type="curve" smooth="yes"/>
      <point x="129" y="342"/>
      <point x="130" y="369"/>
      <point x="130" y="383" type="curve" smooth="yes"/>
      <point x="130" y="555" type="line" smooth="yes"/>
      <point x="129" y="563"/>
      <point x="125" y="574"/>
      <point x="118" y="570" type="curve" smooth="yes"/>
      <point x="99" y="559"/>
      <point x="86" y="555"/>
      <point x="71" y="553" type="curve" smooth="yes"/>
      <point x="67" y="552"/>
      <point x="63" y="555"/>
      <point x="59" y="559" type="curve" smooth="yes"/>
      <point x="55" y="568" type="line" smooth="yes"/>
      <point x="55" y="571"/>
      <point x="56" y="576"/>
      <point x="59" y="578" type="curve" smooth="yes"/>
      <point x="105" y="607"/>
      <point x="131" y="624"/>
      <point x="147" y="650" type="curve" smooth="yes"/>
      <point x="149" y="653"/>
      <point x="157" y="659"/>
      <point x="165" y="659" type="curve" smooth="yes"/>
      <point x="180" y="659" type="line" smooth="yes"/>
      <point x="189" y="659"/>
      <point x="193" y="650"/>
      <point x="195" y="644" type="curve" smooth="yes"/>
      <point x="195" y="377" type="line" smooth="yes"/>
      <point x="195" y="346"/>
      <point x="203" y="341"/>
      <point x="236" y="340" type="curve" smooth="yes"/>
      <point x="245" y="340"/>
      <point x="248" y="335"/>
      <point x="250" y="327" type="curve" smooth="yes"/>
      <point x="250" y="326"/>
      <point x="250" y="317"/>
    </contour>
  </outline>
</glyph>
